<svg xmlns="http://www.w3.org/2000/svg" viewBox="0 0 240 34" fill="none" role="presentation">
  <g stroke="#2E7B83" stroke-width="1.3" stroke-linecap="round">
    <line x1="12" y1="25" x2="92" y2="25"/>
    <line x1="148" y1="25" x2="228" y2="25"/>
  </g>
  <circle cx="92" cy="25" r="1.5" fill="#2E7B83"/>
  <circle cx="148" cy="25" r="1.5" fill="#2E7B83"/>
  <circle cx="12" cy="25" r="2.1" fill="#EFCA00"/>
  <circle cx="228" cy="25" r="2.1" fill="#EFCA00"/>
  <g transform="translate(120,25) scale(0.92)" fill="none" stroke-width="1.4" stroke-linecap="round" stroke-linejoin="round">
    <g stroke="#2E7B83">
      <path d="M0 0 C -7 -6 -12 -12 -13 -18 C -8 -13 -3 -7 0 0 Z"/>
      <path d="M0 0 C 7 -6 12 -12 13 -18 C 8 -13 3 -7 0 0 Z"/>
      <path d="M0 0 C -10 -3 -18 -6 -22 -10 C -15 -5 -7 -2 0 0 Z"/>
      <path d="M0 0 C 10 -3 18 -6 22 -10 C 15 -5 7 -2 0 0 Z"/>
    </g>
    <path d="M0 0 C -3 -8 -3 -16 0 -22 C 3 -16 3 -8 0 0 Z" stroke="#C9A227"/>
    <path d="M-6 1 Q0 6 6 1" stroke="#C9A227"/>
    <circle cx="0" cy="-24" r="1.6" fill="#EFCA00" stroke="none"/>
  </g>
</svg>
