<svg xmlns="http://www.w3.org/2000/svg" viewBox="0 0 64 56" width="64" height="56" fill="none" role="presentation">
  <g transform="translate(32,46) scale(0.7)" stroke="#2E7B83" stroke-width="1.7" stroke-linecap="round" stroke-linejoin="round">
    <path d="M0 0 C -3 -8 -3 -16 0 -22 C 3 -16 3 -8 0 0 Z"/>
    <path d="M0 0 C -7 -6 -12 -12 -13 -18 C -8 -13 -3 -7 0 0 Z"/>
    <path d="M0 0 C 7 -6 12 -12 13 -18 C 8 -13 3 -7 0 0 Z"/>
    <path d="M0 0 C -10 -3 -18 -6 -22 -10 C -15 -5 -7 -2 0 0 Z"/>
    <path d="M0 0 C 10 -3 18 -6 22 -10 C 15 -5 7 -2 0 0 Z"/>
  </g>
</svg>
