<svg xmlns="http://www.w3.org/2000/svg" viewBox="0 0 48 28" fill="none" role="presentation">
  <g transform="translate(24,25)" stroke-width="1.5" stroke-linecap="round" stroke-linejoin="round">
    <g stroke="#2E7B83" fill="none">
      <path d="M0 0 C -7 -6 -12 -12 -13 -18 C -8 -13 -3 -7 0 0 Z"/>
      <path d="M0 0 C 7 -6 12 -12 13 -18 C 8 -13 3 -7 0 0 Z"/>
      <path d="M0 0 C -10 -3 -18 -6 -22 -10 C -15 -5 -7 -2 0 0 Z"/>
      <path d="M0 0 C 10 -3 18 -6 22 -10 C 15 -5 7 -2 0 0 Z"/>
    </g>
    <path d="M0 0 C -3 -8 -3 -16 0 -22 C 3 -16 3 -8 0 0 Z" stroke="#C9A227" fill="none"/>
    <path d="M-6 1 Q0 6 6 1" stroke="#C9A227" fill="none"/>
    <circle cx="0" cy="-24" r="1.7" fill="#EFCA00" stroke="none"/>
  </g>
</svg>
